<svg width="192" height="24" viewBox="0 0 192 24" fill="none" xmlns="http://www.w3.org/2000/svg">
<path d="M25.342 0.928C27.9047 0.928 29.899 1.68233 31.325 3.191C32.751 4.679 33.464 6.83867 33.464 9.67V23H28.442V9.825C28.442 8.29567 28.039 7.14867 27.233 6.384C26.4477 5.59867 25.404 5.206 24.102 5.206C22.676 5.206 21.5393 5.61933 20.692 6.446C19.8447 7.252 19.421 8.48167 19.421 10.135V23H14.399V9.825C14.399 8.29567 14.027 7.14867 13.283 6.384C12.539 5.59867 11.5263 5.206 10.245 5.206C8.83967 5.206 7.71333 5.61933 6.866 6.446C6.01867 7.252 5.595 8.48167 5.595 10.135V23H0.573V1.3H5.44V3.966C6.10133 2.99467 6.97967 2.25067 8.075 1.734C9.17033 1.19667 10.431 0.928 11.857 0.928C13.345 0.928 14.647 1.207 15.763 1.765C16.879 2.30233 17.7367 3.08767 18.336 4.121C19.08 3.08767 20.0513 2.30233 21.25 1.765C22.4693 1.207 23.8333 0.928 25.342 0.928ZM54.9998 6.322V23H50.3808V21.078C49.1821 22.5247 47.4461 23.248 45.1728 23.248C43.6021 23.248 42.1761 22.8967 40.8948 22.194C39.6341 21.4913 38.6421 20.489 37.9188 19.187C37.1955 17.885 36.8338 16.3763 36.8338 14.661C36.8338 12.9457 37.1955 11.437 37.9188 10.135C38.6421 8.833 39.6341 7.83067 40.8948 7.128C42.1761 6.42533 43.6021 6.074 45.1728 6.074C47.3015 6.074 48.9651 6.74567 50.1638 8.089V6.322H54.9998ZM46.0098 19.28C47.2291 19.28 48.2418 18.8667 49.0478 18.04C49.8538 17.1927 50.2568 16.0663 50.2568 14.661C50.2568 13.2557 49.8538 12.1397 49.0478 11.313C48.2418 10.4657 47.2291 10.042 46.0098 10.042C44.7698 10.042 43.7468 10.4657 42.9408 11.313C42.1348 12.1397 41.7318 13.2557 41.7318 14.661C41.7318 16.0663 42.1348 17.1927 42.9408 18.04C43.7468 18.8667 44.7698 19.28 46.0098 19.28ZM64.0961 8.523C64.6748 7.717 65.4498 7.10733 66.4211 6.694C67.4131 6.28067 68.5498 6.074 69.8311 6.074V10.538C69.2938 10.4967 68.9321 10.476 68.7461 10.476C67.3615 10.476 66.2765 10.8687 65.4911 11.654C64.7058 12.4187 64.3131 13.576 64.3131 15.126V23H59.4771V6.322H64.0961V8.523ZM79.8676 16.459L77.5426 18.753V23H72.7066V-0.00200135H77.5426V13.018L84.6106 6.322H90.3766L83.4326 13.39L90.9966 23H85.1376L79.8676 16.459ZM100.846 19.373C101.714 19.373 102.479 19.249 103.14 19.001C103.822 18.7323 104.452 18.319 105.031 17.761L107.604 20.551C106.033 22.349 103.739 23.248 100.722 23.248C98.8412 23.248 97.1776 22.8863 95.7309 22.163C94.2842 21.419 93.1682 20.396 92.3829 19.094C91.5976 17.792 91.2049 16.3143 91.2049 14.661C91.2049 13.0283 91.5872 11.561 92.3519 10.259C93.1372 8.93633 94.2016 7.91333 95.5449 7.19C96.9089 6.446 98.4382 6.074 100.133 6.074C101.724 6.074 103.171 6.415 104.473 7.097C105.775 7.75833 106.808 8.72967 107.573 10.011C108.358 11.2717 108.751 12.77 108.751 14.506L96.4129 16.893C96.7642 17.7197 97.3119 18.3397 98.0559 18.753C98.8206 19.1663 99.7506 19.373 100.846 19.373ZM100.133 9.732C98.9136 9.732 97.9216 10.1247 97.1569 10.91C96.3922 11.6953 95.9892 12.7803 95.9479 14.165L104.07 12.584C103.843 11.716 103.378 11.0237 102.675 10.507C101.972 9.99033 101.125 9.732 100.133 9.732ZM128.153 7.376C126.293 6.30133 124.298 5.609 122.17 5.299V23H117.148V5.299C115.019 5.609 113.014 6.30133 111.134 7.376L109.429 3.625C110.917 2.73633 112.529 2.06467 114.265 1.61C116.001 1.15533 117.788 0.928 119.628 0.928C121.488 0.928 123.286 1.15533 125.022 1.61C126.778 2.06467 128.39 2.73633 129.858 3.625L128.153 7.376ZM138.011 23.248C136.254 23.248 134.673 22.8863 133.268 22.163C131.883 21.419 130.798 20.396 130.013 19.094C129.227 17.792 128.835 16.3143 128.835 14.661C128.835 13.0077 129.227 11.53 130.013 10.228C130.798 8.926 131.883 7.91333 133.268 7.19C134.673 6.446 136.254 6.074 138.011 6.074C139.767 6.074 141.338 6.446 142.723 7.19C144.107 7.91333 145.192 8.926 145.978 10.228C146.763 11.53 147.156 13.0077 147.156 14.661C147.156 16.3143 146.763 17.792 145.978 19.094C145.192 20.396 144.107 21.419 142.723 22.163C141.338 22.8863 139.767 23.248 138.011 23.248ZM138.011 19.28C139.251 19.28 140.263 18.8667 141.049 18.04C141.855 17.1927 142.258 16.0663 142.258 14.661C142.258 13.2557 141.855 12.1397 141.049 11.313C140.263 10.4657 139.251 10.042 138.011 10.042C136.771 10.042 135.748 10.4657 134.942 11.313C134.136 12.1397 133.733 13.2557 133.733 14.661C133.733 16.0663 134.136 17.1927 134.942 18.04C135.748 18.8667 136.771 19.28 138.011 19.28ZM165.392 11.809H169.98V23H166.198V21.698C164.69 22.814 162.747 23.372 160.37 23.372C158.366 23.372 156.526 22.938 154.852 22.07C153.178 21.202 151.845 19.9413 150.853 18.288C149.861 16.614 149.365 14.63 149.365 12.336C149.365 10.1247 149.872 8.16133 150.884 6.446C151.918 4.71 153.344 3.35633 155.162 2.385C156.981 1.41367 159.027 0.928 161.3 0.928C163.202 0.928 164.927 1.24833 166.477 1.889C168.027 2.52967 169.329 3.45967 170.383 4.679L167.159 7.655C165.609 6.02233 163.739 5.206 161.548 5.206C160.164 5.206 158.934 5.50567 157.859 6.105C156.785 6.68367 155.948 7.51033 155.348 8.585C154.749 9.65967 154.449 10.8997 154.449 12.305C154.449 13.7723 154.739 15.0227 155.317 16.056C155.917 17.0893 156.712 17.8747 157.704 18.412C158.696 18.9287 159.781 19.187 160.959 19.187C162.716 19.187 164.194 18.691 165.392 17.699V11.809ZM182.24 23.248C180.484 23.248 178.903 22.8863 177.497 22.163C176.113 21.419 175.028 20.396 174.242 19.094C173.457 17.792 173.064 16.3143 173.064 14.661C173.064 13.0077 173.457 11.53 174.242 10.228C175.028 8.926 176.113 7.91333 177.497 7.19C178.903 6.446 180.484 6.074 182.24 6.074C183.997 6.074 185.568 6.446 186.952 7.19C188.337 7.91333 189.422 8.926 190.207 10.228C190.993 11.53 191.385 13.0077 191.385 14.661C191.385 16.3143 190.993 17.792 190.207 19.094C189.422 20.396 188.337 21.419 186.952 22.163C185.568 22.8863 183.997 23.248 182.24 23.248ZM182.24 19.28C183.48 19.28 184.493 18.8667 185.278 18.04C186.084 17.1927 186.487 16.0663 186.487 14.661C186.487 13.2557 186.084 12.1397 185.278 11.313C184.493 10.4657 183.48 10.042 182.24 10.042C181 10.042 179.977 10.4657 179.171 11.313C178.365 12.1397 177.962 13.2557 177.962 14.661C177.962 16.0663 178.365 17.1927 179.171 18.04C179.977 18.8667 181 19.28 182.24 19.28Z" fill="#2CA682"/>
</svg>
